<svg width="15" height="9" viewBox="0 0 15 9" fill="none" xmlns="http://www.w3.org/2000/svg">
<path d="M14.9443 0.465C14.8682 0.281738 14.7226 0.136106 14.5393 0.0599999C14.4492 0.0215692 14.3524 0.00118499 14.2543 0H10.5043C10.3054 0 10.1147 0.0790178 9.97402 0.21967C9.83337 0.360322 9.75435 0.551088 9.75435 0.75C9.75435 0.948912 9.83337 1.13968 9.97402 1.28033C10.1147 1.42098 10.3054 1.5 10.5043 1.5H12.4468L8.25435 5.6925L5.78685 3.2175C5.71713 3.1472 5.63418 3.09141 5.54278 3.05333C5.45139 3.01526 5.35336 2.99565 5.25435 2.99565C5.15534 2.99565 5.05731 3.01526 4.96592 3.05333C4.87452 3.09141 4.79157 3.1472 4.72185 3.2175L0.221849 7.7175C0.151552 7.78722 0.0957567 7.87017 0.0576802 7.96157C0.0196037 8.05296 0 8.15099 0 8.25C0 8.34901 0.0196037 8.44704 0.0576802 8.53843C0.0957567 8.62983 0.151552 8.71278 0.221849 8.7825C0.291571 8.8528 0.374522 8.90859 0.465916 8.94667C0.557311 8.98475 0.65534 9.00435 0.754349 9.00435C0.853358 9.00435 0.951387 8.98475 1.04278 8.94667C1.13418 8.90859 1.21713 8.8528 1.28685 8.7825L5.25435 4.8075L7.72185 7.2825C7.79157 7.3528 7.87452 7.40859 7.96592 7.44667C8.05731 7.48475 8.15534 7.50435 8.25435 7.50435C8.35336 7.50435 8.45139 7.48475 8.54278 7.44667C8.63418 7.40859 8.71713 7.3528 8.78685 7.2825L13.5043 2.5575V4.5C13.5043 4.69891 13.5834 4.88968 13.724 5.03033C13.8647 5.17098 14.0554 5.25 14.2543 5.25C14.4533 5.25 14.644 5.17098 14.7847 5.03033C14.9253 4.88968 15.0043 4.69891 15.0043 4.5V0.75C15.0032 0.651992 14.9828 0.555167 14.9443 0.465Z" fill="#818187"/>
</svg>
