<svg width="17" height="13" viewBox="0 0 17 13" fill="none" xmlns="http://www.w3.org/2000/svg">
<path d="M8.475 6.54C8.87518 6.1936 9.19616 5.76516 9.41616 5.28377C9.63615 4.80237 9.75001 4.27928 9.75 3.75C9.75 2.75544 9.35491 1.80161 8.65165 1.09835C7.94839 0.395088 6.99456 1.34183e-07 6 1.34183e-07C5.00544 1.34183e-07 4.05161 0.395088 3.34835 1.09835C2.64509 1.80161 2.25 2.75544 2.25 3.75C2.24999 4.27928 2.36385 4.80237 2.58384 5.28377C2.80384 5.76516 3.12482 6.1936 3.525 6.54C2.47511 7.01541 1.58435 7.78315 0.959235 8.75141C0.334121 9.71967 0.00110389 10.8475 0 12C0 12.1989 0.0790176 12.3897 0.21967 12.5303C0.360322 12.671 0.551088 12.75 0.75 12.75C0.948912 12.75 1.13968 12.671 1.28033 12.5303C1.42098 12.3897 1.5 12.1989 1.5 12C1.5 10.8065 1.97411 9.66193 2.81802 8.81802C3.66193 7.97411 4.80653 7.5 6 7.5C7.19347 7.5 8.33807 7.97411 9.18198 8.81802C10.0259 9.66193 10.5 10.8065 10.5 12C10.5 12.1989 10.579 12.3897 10.7197 12.5303C10.8603 12.671 11.0511 12.75 11.25 12.75C11.4489 12.75 11.6397 12.671 11.7803 12.5303C11.921 12.3897 12 12.1989 12 12C11.9989 10.8475 11.6659 9.71967 11.0408 8.75141C10.4157 7.78315 9.5249 7.01541 8.475 6.54ZM6 6C5.55499 6 5.11998 5.86804 4.74997 5.62081C4.37996 5.37357 4.09157 5.02217 3.92127 4.61104C3.75097 4.1999 3.70642 3.7475 3.79323 3.31105C3.88005 2.87459 4.09434 2.47368 4.40901 2.15901C4.72368 1.84434 5.12459 1.63005 5.56105 1.54323C5.9975 1.45642 6.4499 1.50097 6.86104 1.67127C7.27217 1.84157 7.62357 2.12996 7.87081 2.49997C8.11804 2.86998 8.25 3.30499 8.25 3.75C8.25 4.34674 8.01295 4.91903 7.59099 5.34099C7.16903 5.76295 6.59674 6 6 6ZM13.305 6.24C13.785 5.6995 14.0985 5.03179 14.2079 4.31725C14.3172 3.60272 14.2177 2.87181 13.9213 2.2125C13.625 1.55319 13.1443 0.993597 12.5374 0.601067C11.9304 0.208538 11.2229 -0.0001932 10.5 1.34183e-07C10.3011 1.34183e-07 10.1103 0.0790177 9.96967 0.21967C9.82902 0.360322 9.75 0.551088 9.75 0.75C9.75 0.948913 9.82902 1.13968 9.96967 1.28033C10.1103 1.42098 10.3011 1.5 10.5 1.5C11.0967 1.5 11.669 1.73705 12.091 2.15901C12.5129 2.58097 12.75 3.15326 12.75 3.75C12.7489 4.14393 12.6445 4.53068 12.447 4.87157C12.2496 5.21245 11.9662 5.49554 11.625 5.6925C11.5138 5.75664 11.4209 5.84825 11.3553 5.95856C11.2896 6.06886 11.2534 6.19418 11.25 6.3225C11.2469 6.44982 11.2762 6.57585 11.3352 6.68869C11.3943 6.80154 11.4811 6.89749 11.5875 6.9675L11.88 7.1625L11.9775 7.215C12.8815 7.64379 13.6442 8.32199 14.1757 9.16974C14.7072 10.0175 14.9854 10.9995 14.9775 12C14.9775 12.1989 15.0565 12.3897 15.1972 12.5303C15.3378 12.671 15.5286 12.75 15.7275 12.75C15.9264 12.75 16.1172 12.671 16.2578 12.5303C16.3985 12.3897 16.4775 12.1989 16.4775 12C16.4836 10.8491 16.1954 9.71569 15.6401 8.70755C15.0848 7.6994 14.281 6.84998 13.305 6.24Z" fill="#818187"/>
</svg>
