<svg width="17" height="10" viewBox="0 0 17 10" fill="none" xmlns="http://www.w3.org/2000/svg">
<path d="M16.6048 0.516667C16.5203 0.313042 16.3585 0.151229 16.1548 0.0666666C16.0546 0.0239658 15.9471 0.00131666 15.8382 0H11.6715C11.4505 0 11.2385 0.0877975 11.0822 0.244078C10.926 0.400358 10.8382 0.61232 10.8382 0.833333C10.8382 1.05435 10.926 1.26631 11.0822 1.42259C11.2385 1.57887 11.4505 1.66667 11.6715 1.66667H13.8298L9.1715 6.325L6.42983 3.575C6.35236 3.49689 6.2602 3.4349 6.15865 3.39259C6.0571 3.35028 5.94818 3.3285 5.83817 3.3285C5.72816 3.3285 5.61923 3.35028 5.51768 3.39259C5.41614 3.4349 5.32397 3.49689 5.2465 3.575L0.246499 8.575C0.168392 8.65247 0.106396 8.74464 0.0640891 8.84619C0.0217819 8.94774 0 9.05666 0 9.16667C0 9.27668 0.0217819 9.3856 0.0640891 9.48715C0.106396 9.5887 0.168392 9.68086 0.246499 9.75833C0.323968 9.83644 0.416135 9.89844 0.517685 9.94074C0.619234 9.98305 0.728155 10.0048 0.838165 10.0048C0.948175 10.0048 1.0571 9.98305 1.15865 9.94074C1.2602 9.89844 1.35236 9.83644 1.42983 9.75833L5.83817 5.34167L8.57983 8.09167C8.6573 8.16977 8.74947 8.23177 8.85102 8.27408C8.95257 8.31638 9.06149 8.33817 9.1715 8.33817C9.28151 8.33817 9.39043 8.31638 9.49198 8.27408C9.59353 8.23177 9.6857 8.16977 9.76317 8.09167L15.0048 2.84167V5C15.0048 5.22101 15.0926 5.43298 15.2489 5.58926C15.4052 5.74554 15.6172 5.83333 15.8382 5.83333C16.0592 5.83333 16.2711 5.74554 16.4274 5.58926C16.5837 5.43298 16.6715 5.22101 16.6715 5V0.833333C16.6702 0.724436 16.6475 0.616852 16.6048 0.516667Z" fill="#FF8600"/>
</svg>
