<svg width="17" height="15" viewBox="0 0 17 15" fill="none" xmlns="http://www.w3.org/2000/svg">
<path d="M15.8333 5.83333H15V5C15 4.77899 14.9122 4.56703 14.7559 4.41074C14.5996 4.25446 14.3877 4.16667 14.1667 4.16667C13.9457 4.16667 13.7337 4.25446 13.5774 4.41074C13.4211 4.56703 13.3333 4.77899 13.3333 5V5.83333H12.5C12.279 5.83333 12.067 5.92113 11.9107 6.07741C11.7545 6.23369 11.6667 6.44565 11.6667 6.66667C11.6667 6.88768 11.7545 7.09964 11.9107 7.25592C12.067 7.4122 12.279 7.5 12.5 7.5H13.3333V8.33333C13.3333 8.55435 13.4211 8.76631 13.5774 8.92259C13.7337 9.07887 13.9457 9.16667 14.1667 9.16667C14.3877 9.16667 14.5996 9.07887 14.7559 8.92259C14.9122 8.76631 15 8.55435 15 8.33333V7.5H15.8333C16.0543 7.5 16.2663 7.4122 16.4226 7.25592C16.5789 7.09964 16.6667 6.88768 16.6667 6.66667C16.6667 6.44565 16.5789 6.23369 16.4226 6.07741C16.2663 5.92113 16.0543 5.83333 15.8333 5.83333ZM9.41667 7.26667C9.86131 6.88178 10.218 6.40574 10.4624 5.87085C10.7068 5.33597 10.8333 4.75476 10.8333 4.16667C10.8333 3.0616 10.3943 2.00179 9.61295 1.22039C8.83154 0.438987 7.77174 0 6.66667 0C5.5616 0 4.50179 0.438987 3.72039 1.22039C2.93899 2.00179 2.5 3.0616 2.5 4.16667C2.49999 4.75476 2.6265 5.33597 2.87094 5.87085C3.11537 6.40574 3.47202 6.88178 3.91667 7.26667C2.75012 7.7949 1.76039 8.64794 1.06582 9.72379C0.371246 10.7996 0.00122655 12.0528 0 13.3333C0 13.5543 0.0877973 13.7663 0.244078 13.9226C0.400358 14.0789 0.61232 14.1667 0.833333 14.1667C1.05435 14.1667 1.26631 14.0789 1.42259 13.9226C1.57887 13.7663 1.66667 13.5543 1.66667 13.3333C1.66667 12.0073 2.19345 10.7355 3.13113 9.7978C4.06882 8.86012 5.34058 8.33333 6.66667 8.33333C7.99275 8.33333 9.26452 8.86012 10.2022 9.7978C11.1399 10.7355 11.6667 12.0073 11.6667 13.3333C11.6667 13.5543 11.7545 13.7663 11.9107 13.9226C12.067 14.0789 12.279 14.1667 12.5 14.1667C12.721 14.1667 12.933 14.0789 13.0893 13.9226C13.2455 13.7663 13.3333 13.5543 13.3333 13.3333C13.3321 12.0528 12.9621 10.7996 12.2675 9.72379C11.5729 8.64794 10.5832 7.7949 9.41667 7.26667ZM6.66667 6.66667C6.17221 6.66667 5.68886 6.52004 5.27774 6.24534C4.86662 5.97064 4.54619 5.58019 4.35697 5.12338C4.16775 4.66656 4.11824 4.16389 4.2147 3.67894C4.31117 3.19399 4.54927 2.74853 4.8989 2.3989C5.24853 2.04927 5.69399 1.81117 6.17894 1.7147C6.66389 1.61824 7.16656 1.66775 7.62338 1.85697C8.08019 2.04619 8.47064 2.36662 8.74534 2.77774C9.02004 3.18886 9.16667 3.67221 9.16667 4.16667C9.16667 4.82971 8.90328 5.46559 8.43443 5.93443C7.96559 6.40328 7.32971 6.66667 6.66667 6.66667Z" fill="#7B91F7"/>
</svg>
