<svg width="15" height="15" viewBox="0 0 15 15" fill="none" xmlns="http://www.w3.org/2000/svg">
<path d="M10.2345 8.03662C10.9698 7.45812 11.5065 6.66481 11.77 5.76708C12.0334 4.86934 12.0105 3.91182 11.7044 3.02772C11.3983 2.14362 10.8242 1.37692 10.0621 0.834264C9.29994 0.291611 8.38761 0 7.45202 0C6.51644 0 5.60411 0.291611 4.84197 0.834264C4.07983 1.37692 3.50578 2.14362 3.19968 3.02772C2.89358 3.91182 2.87066 4.86934 3.13409 5.76708C3.39753 6.66481 3.93423 7.45812 4.66952 8.03662C3.40958 8.5414 2.31024 9.37863 1.48869 10.4591C0.667147 11.5395 0.154196 12.8226 0.00452388 14.1716C-0.00631017 14.2701 0.00236128 14.3698 0.030043 14.4649C0.0577246 14.5601 0.103874 14.6488 0.165857 14.7261C0.291038 14.8822 0.473112 14.9822 0.672024 15.0041C0.870936 15.026 1.07039 14.968 1.22652 14.8428C1.38264 14.7176 1.48264 14.5355 1.50452 14.3366C1.66921 12.8705 2.36829 11.5165 3.46819 10.5332C4.56809 9.54995 5.9917 9.00639 7.46702 9.00639C8.94235 9.00639 10.366 9.54995 11.4659 10.5332C12.5658 11.5165 13.2648 12.8705 13.4295 14.3366C13.4499 14.5209 13.5378 14.6911 13.6764 14.8144C13.8149 14.9376 13.9941 15.0052 14.1795 15.0041H14.262C14.4586 14.9815 14.6383 14.8821 14.7619 14.7276C14.8856 14.573 14.9431 14.3759 14.922 14.1791C14.7716 12.8263 14.2559 11.5399 13.4302 10.4578C12.6044 9.37569 11.4997 8.53873 10.2345 8.03662ZM7.45202 7.50412C6.85868 7.50412 6.27866 7.32817 5.78531 6.99853C5.29197 6.66889 4.90745 6.20035 4.68039 5.65217C4.45332 5.10399 4.39391 4.50079 4.50967 3.91885C4.62542 3.33691 4.91115 2.80236 5.3307 2.3828C5.75026 1.96324 6.28481 1.67752 6.86675 1.56177C7.4487 1.44601 8.0519 1.50542 8.60007 1.73248C9.14825 1.95955 9.61679 2.34406 9.94643 2.83741C10.2761 3.33076 10.452 3.91078 10.452 4.50412C10.452 5.29977 10.136 6.06283 9.57335 6.62544C9.01074 7.18805 8.24767 7.50412 7.45202 7.50412Z" fill="#818187"/>
</svg>
