<svg width="16" height="18" viewBox="0 0 16 18" fill="none" xmlns="http://www.w3.org/2000/svg">
<path d="M10.75 3.75C10.75 5.40685 9.40685 6.75 7.75 6.75C6.09315 6.75 4.75 5.40685 4.75 3.75C4.75 2.09315 6.09315 0.75 7.75 0.75C9.40685 0.75 10.75 2.09315 10.75 3.75Z" fill="#B0BABF" stroke="#B0BABF" stroke-width="1.5"/>
<path d="M0.75 13.3089V14.75C0.75 16.1307 1.86929 17.25 3.25 17.25H12.25C13.6307 17.25 14.75 16.1307 14.75 14.75V13.4202C14.75 12.2864 14.0665 11.2623 12.9916 10.9018C11.4551 10.3865 9.50626 9.75 7.75 9.75C6.03001 9.75 3.73586 10.3605 2.37518 10.8697C1.36649 11.2472 0.75 12.2319 0.75 13.3089Z" fill="#B0BABF"/>
<path fill-rule="evenodd" clip-rule="evenodd" d="M7.75 10.5C6.15815 10.5 3.96025 11.0773 2.63807 11.5721C1.95212 11.8289 1.5 12.5117 1.5 13.3089V14.75C1.5 15.7165 2.2835 16.5 3.25 16.5H12.25C13.2165 16.5 14 15.7165 14 14.75V13.4202C14 12.5837 13.4993 11.8632 12.7531 11.6129C11.1951 11.0903 9.36307 10.5 7.75 10.5ZM2.11229 10.1673C3.51147 9.64364 5.90187 9 7.75 9C9.64945 9 11.7151 9.68263 13.23 10.1907C14.6337 10.6615 15.5 11.9892 15.5 13.4202V14.75C15.5 16.5449 14.0449 18 12.25 18H3.25C1.45507 18 0 16.5449 0 14.75V13.3089C0 11.9521 0.780849 10.6656 2.11229 10.1673Z" fill="#B0BABF"/>
</svg>
